<?xml version="1.0" standalone="no"?>
<!DOCTYPE svg PUBLIC "-//W3C//DTD SVG 20010904//EN"
 "http://www.w3.org/TR/2001/REC-SVG-20010904/DTD/svg10.dtd">
<svg version="1.0" xmlns="http://www.w3.org/2000/svg"
 width="700.000000pt" height="700.000000pt" viewBox="0 0 700.000000 700.000000"
 preserveAspectRatio="xMidYMid meet">
<metadata>
Created by potrace 1.15, written by Peter Selinger 2001-2017
</metadata>
<g transform="translate(0.000000,700.000000) scale(0.100000,-0.100000)"
fill="#000000" stroke="none">
<path d="M520 5598 l0 -883 262 263 263 262 442 -442 443 -443 357 358 358
357 -443 443 -442 442 262 263 263 262 -883 0 -882 0 0 -882z"/>
<path d="M5018 6218 l262 -263 -442 -442 -443 -443 358 -357 357 -358 443 443
442 442 263 -262 262 -263 0 883 0 882 -882 0 -883 0 263 -262z"/>
<path d="M1485 2160 l-440 -440 -262 262 -263 263 0 -883 0 -882 882 0 883 0
-263 262 -262 263 442 442 443 443 -355 355 c-195 195 -357 355 -360 355 -3 0
-203 -198 -445 -440z"/>
<path d="M4750 2245 l-355 -355 443 -443 442 -442 -262 -263 -263 -262 883 0
882 0 0 882 0 883 -263 -263 -262 -262 -440 440 c-242 242 -442 440 -445 440
-3 0 -165 -160 -360 -355z"/>
</g>
</svg>
