<?xml version="1.0" standalone="no"?>
<!DOCTYPE svg PUBLIC "-//W3C//DTD SVG 20010904//EN"
 "http://www.w3.org/TR/2001/REC-SVG-20010904/DTD/svg10.dtd">
<svg version="1.0" xmlns="http://www.w3.org/2000/svg"
 width="2916.000000pt" height="2916.000000pt" viewBox="0 0 2916.000000 2916.000000"
 preserveAspectRatio="xMidYMid meet">
<metadata>
Created by potrace 1.15, written by Peter Selinger 2001-2017
</metadata>
<g transform="translate(0.000000,2916.000000) scale(0.100000,-0.100000)"
fill="#000000" stroke="none">
<path d="M7155 26974 c-272 -7 -660 -26 -665 -33 -3 -4 -59 -13 -125 -20 -66
-7 -122 -17 -125 -21 -3 -4 -31 -11 -63 -15 -31 -4 -59 -11 -62 -15 -3 -5 -37
-14 -75 -21 -39 -7 -70 -15 -70 -19 0 -4 -27 -13 -60 -20 -33 -7 -60 -17 -60
-21 0 -5 -7 -9 -16 -9 -8 0 -35 -9 -60 -20 -24 -11 -58 -23 -74 -27 -17 -3
-30 -9 -30 -14 0 -4 -19 -13 -42 -20 -24 -6 -45 -14 -48 -18 -3 -4 -50 -29
-105 -57 -55 -27 -106 -55 -113 -61 -7 -7 -20 -13 -28 -13 -8 0 -14 -4 -14 -9
0 -5 -16 -15 -35 -22 -19 -7 -35 -16 -35 -20 0 -4 -9 -11 -20 -14 -11 -3 -26
-12 -32 -18 -7 -7 -33 -25 -58 -42 -25 -16 -51 -36 -58 -42 -7 -7 -17 -13 -22
-13 -5 0 -16 -8 -25 -17 -9 -9 -42 -36 -73 -60 -32 -23 -74 -57 -96 -75 -62
-53 -317 -309 -361 -363 -22 -27 -55 -66 -72 -86 -18 -20 -33 -42 -33 -48 0
-6 -4 -11 -8 -11 -9 0 -102 -123 -102 -135 0 -3 -6 -13 -12 -20 -23 -26 -33
-40 -48 -70 -8 -16 -18 -34 -23 -40 -23 -30 -57 -87 -57 -95 0 -6 -4 -10 -8
-10 -5 0 -14 -18 -21 -40 -6 -22 -16 -40 -21 -40 -6 0 -10 -5 -10 -12 0 -13
-52 -120 -61 -128 -4 -3 -12 -25 -19 -50 -7 -25 -15 -47 -19 -50 -7 -6 -38
-89 -53 -145 -6 -22 -14 -42 -18 -45 -4 -3 -13 -30 -20 -60 -7 -30 -16 -59
-20 -65 -4 -5 -13 -44 -20 -85 -7 -41 -17 -80 -21 -85 -4 -6 -11 -46 -15 -90
-4 -44 -10 -82 -15 -85 -10 -7 -29 -742 -29 -1136 0 -198 -4 -315 -10 -319 -7
-4 -10 -1009 -10 -2982 l0 -2975 -267 -270 c-530 -532 -596 -598 -604 -598 -5
0 -9 -5 -9 -11 0 -6 -26 -36 -57 -68 -96 -95 -415 -436 -448 -478 -11 -14 -36
-43 -55 -64 -19 -21 -48 -55 -65 -75 -16 -21 -41 -50 -55 -66 -46 -52 -49 -56
-43 -62 4 -3 1 -6 -6 -6 -6 0 -16 -11 -21 -25 -5 -14 -14 -25 -20 -25 -5 0
-10 -4 -10 -10 0 -5 -18 -36 -40 -67 -22 -32 -40 -64 -40 -70 0 -7 -3 -13 -8
-13 -12 0 -78 -134 -74 -152 1 -5 -2 -8 -7 -8 -5 0 -12 -18 -16 -40 -4 -22
-10 -40 -14 -40 -34 0 -53 -490 -27 -690 9 -69 21 -129 26 -134 6 -6 10 -16
10 -22 0 -7 5 -25 12 -41 6 -15 12 -30 13 -33 6 -22 69 -146 76 -148 5 -2 9
-9 9 -15 0 -11 45 -81 67 -105 7 -7 13 -19 13 -25 0 -7 9 -18 20 -25 11 -7 20
-19 20 -27 0 -8 4 -15 10 -15 5 0 16 -12 24 -27 8 -16 28 -42 43 -60 15 -17
42 -48 58 -69 17 -21 47 -55 67 -76 21 -21 36 -38 34 -38 -5 0 79 -92 161
-176 40 -40 73 -76 73 -78 0 -2 100 -105 223 -229 122 -123 381 -385 575 -582
l352 -358 0 -2978 c0 -1974 3 -2980 10 -2984 6 -4 10 -121 10 -319 0 -395 19
-1119 29 -1126 4 -3 11 -43 15 -89 4 -47 11 -90 16 -96 5 -6 15 -43 21 -83 7
-40 15 -72 19 -72 4 0 13 -27 19 -60 7 -33 18 -72 26 -87 8 -15 15 -36 15 -45
0 -9 4 -19 9 -22 5 -4 15 -29 22 -56 7 -28 16 -50 20 -50 4 0 11 -15 14 -33 7
-30 43 -106 56 -117 3 -3 12 -22 18 -42 7 -21 16 -38 21 -38 5 0 11 -13 15
-29 3 -16 15 -39 26 -52 10 -12 19 -28 19 -36 0 -7 4 -13 9 -13 5 0 12 -8 15
-18 4 -10 31 -56 61 -101 30 -46 55 -85 55 -88 0 -5 108 -152 127 -173 7 -8
21 -25 31 -36 84 -105 125 -150 242 -269 76 -77 186 -177 250 -225 18 -14 49
-40 68 -57 19 -18 38 -33 43 -33 4 0 14 -6 21 -12 7 -7 33 -26 58 -43 25 -16
51 -35 58 -42 6 -6 21 -15 32 -18 11 -3 20 -11 20 -16 0 -5 5 -9 10 -9 9 0 87
-47 100 -60 3 -3 37 -21 75 -40 39 -19 72 -37 75 -41 3 -4 18 -11 33 -14 15
-4 27 -11 27 -15 0 -4 20 -13 45 -20 25 -7 45 -16 45 -21 0 -4 15 -10 33 -14
17 -4 41 -13 52 -20 11 -7 35 -16 53 -19 17 -4 32 -11 32 -15 0 -5 27 -14 60
-21 33 -7 60 -16 60 -20 0 -4 32 -13 70 -20 39 -7 70 -17 70 -21 0 -4 28 -10
63 -14 34 -4 64 -11 67 -15 5 -9 219 -30 298 -30 28 0 52 -4 54 -9 10 -28
2168 -48 2438 -22 80 7 147 17 150 21 3 3 40 13 83 20 42 7 77 17 77 21 0 5 7
9 15 9 14 0 90 34 170 77 16 9 43 29 60 45 16 15 33 28 37 28 12 0 132 123
175 180 23 30 47 60 53 67 5 7 16 25 22 40 7 15 18 34 25 41 7 7 13 22 13 33
0 10 4 19 9 19 4 0 14 28 21 63 7 34 17 64 21 67 4 3 13 70 19 149 10 145 -1
399 -19 411 -5 3 -11 26 -15 53 -4 26 -11 47 -16 47 -5 0 -7 7 -4 15 4 8 1 15
-5 15 -6 0 -11 9 -11 19 0 11 -6 26 -12 33 -7 7 -20 27 -28 43 -8 17 -18 32
-21 35 -3 3 -12 16 -19 29 -17 33 -23 40 -116 134 -88 89 -98 98 -164 142 -25
16 -47 33 -50 37 -3 3 -28 12 -55 19 -28 7 -52 16 -55 20 -6 9 -226 29 -322
29 -41 0 -78 4 -84 9 -5 6 -219 13 -504 17 -272 4 -497 10 -500 14 -3 4 -326
11 -719 16 -556 7 -715 12 -719 22 -2 6 -9 12 -15 12 -10 0 -29 13 -84 60 -7
5 -24 15 -38 22 -14 6 -25 15 -25 19 0 4 -8 10 -19 14 -10 3 -28 13 -39 23
-11 9 -33 26 -49 37 -43 30 -263 251 -263 264 0 6 -4 11 -8 11 -8 0 -62 76
-62 88 -1 4 -9 25 -20 47 -11 22 -19 52 -20 67 0 15 -4 29 -8 32 -5 3 -7 19
-4 36 2 16 -1 36 -7 43 -6 8 -13 98 -17 228 -4 118 -11 216 -15 219 -9 6 -29
1838 -29 2717 0 351 -4 634 -9 637 -5 3 -12 822 -16 1868 -4 1025 -10 1867
-12 1872 -3 4 -5 52 -4 105 2 71 -2 105 -13 126 -9 17 -16 36 -16 43 0 6 -4
12 -10 12 -5 0 -15 18 -21 40 -7 22 -15 40 -19 40 -5 0 -34 66 -35 82 0 4 -6
13 -12 19 -7 7 -13 21 -13 31 0 10 -4 18 -8 18 -5 0 -14 18 -21 40 -6 22 -16
40 -21 40 -4 0 -11 13 -15 29 -3 16 -13 32 -21 35 -8 3 -14 11 -14 19 0 11
-55 93 -90 134 -5 7 -15 24 -22 38 -6 14 -14 25 -18 25 -4 0 -25 26 -47 58
-23 31 -54 71 -69 88 -16 17 -56 61 -89 98 -33 37 -87 96 -120 131 -33 35 -82
88 -109 117 -26 29 -227 233 -446 453 l-398 401 180 179 c161 162 442 449 698
714 52 54 123 129 157 167 34 38 80 89 102 114 22 25 41 48 41 52 0 4 12 20
28 36 44 47 82 94 82 101 0 3 11 20 25 36 37 45 39 48 55 80 8 17 18 32 21 35
3 3 19 28 34 55 16 28 32 52 36 55 4 3 12 24 19 48 7 23 17 42 22 42 4 0 8 5
8 12 0 12 51 120 61 128 3 3 12 22 18 43 7 20 17 37 22 37 5 0 9 7 9 16 0 9 7
31 16 49 11 25 15 57 12 124 -2 50 0 91 3 91 4 0 10 844 14 1875 4 1062 11
1875 16 1875 5 0 9 277 9 633 0 878 20 2711 29 2717 4 3 11 102 14 220 4 120
11 218 17 224 6 6 10 24 10 41 0 50 22 149 37 163 7 7 13 18 13 24 0 34 180
240 280 321 19 15 49 39 65 53 17 14 55 42 85 62 30 20 57 39 60 42 3 3 25 19
50 35 25 17 50 35 57 41 11 11 562 24 1010 24 120 0 212 4 209 9 -3 5 289 12
674 16 374 4 683 11 686 16 3 5 68 9 144 9 134 0 140 1 166 25 14 13 35 27 45
30 11 4 19 10 19 14 0 5 19 21 42 37 23 16 50 36 59 44 9 8 30 25 46 37 58 44
203 200 203 220 0 6 3 13 8 15 9 4 62 111 62 126 0 6 4 12 9 14 5 2 15 32 22
68 7 36 17 67 21 70 4 3 12 71 18 150 11 148 0 370 -19 394 -5 6 -14 37 -21
69 -7 31 -16 57 -20 57 -4 0 -11 16 -14 35 -4 19 -11 35 -15 35 -5 0 -12 11
-15 24 -3 14 -12 31 -19 38 -7 7 -23 30 -36 52 -13 21 -35 50 -49 65 -13 14
-32 35 -41 46 -17 21 -59 57 -105 90 -16 11 -34 26 -41 33 -18 17 -187 102
-202 102 -7 0 -13 4 -13 8 0 5 -33 15 -72 22 -40 8 -75 17 -78 21 -13 18 -434
31 -1150 33 -426 2 -829 2 -895 0z"/>
<path d="M19775 26958 c-71 -5 -131 -13 -133 -18 -2 -6 -12 -10 -22 -10 -35 0
-119 -23 -114 -32 3 -4 -3 -8 -12 -8 -20 0 -122 -49 -142 -67 -7 -7 -19 -13
-26 -13 -7 0 -22 -8 -34 -17 -11 -10 -30 -25 -42 -33 -37 -25 -80 -63 -119
-103 -20 -22 -44 -46 -53 -55 -10 -9 -18 -21 -18 -27 0 -6 -8 -18 -17 -27 -28
-26 -38 -40 -53 -75 -8 -18 -18 -33 -21 -33 -4 0 -10 -16 -13 -35 -4 -19 -11
-35 -15 -35 -5 0 -14 -28 -21 -62 -7 -35 -17 -68 -21 -73 -4 -6 -13 -70 -19
-141 -11 -135 1 -412 19 -424 4 -3 11 -26 15 -52 4 -27 11 -48 16 -48 5 0 6
-7 3 -17 -4 -10 -2 -14 4 -10 7 4 13 -7 17 -28 4 -19 10 -35 14 -35 4 0 13
-15 21 -32 8 -18 17 -35 21 -38 3 -3 19 -23 36 -45 40 -55 145 -155 226 -217
13 -9 39 -30 58 -45 19 -15 41 -32 48 -38 7 -5 21 -17 31 -25 42 -36 61 -40
190 -40 72 0 132 -4 135 -9 3 -5 312 -12 686 -16 380 -4 680 -11 680 -16 0 -5
94 -9 208 -9 503 0 994 -13 1007 -27 8 -7 17 -13 21 -13 9 0 82 -48 102 -67 6
-6 21 -15 32 -18 11 -3 20 -10 20 -14 0 -4 12 -13 26 -20 31 -14 54 -35 193
-171 116 -115 148 -152 171 -196 8 -16 21 -33 27 -37 7 -4 13 -15 13 -22 0 -8
5 -15 11 -15 5 0 8 -4 5 -9 -3 -5 1 -14 9 -21 8 -7 15 -19 15 -26 0 -8 4 -14
9 -14 5 0 19 -19 32 -42 l22 -43 10 -1925 c5 -1059 13 -1927 17 -1930 4 -3 11
-845 15 -1872 4 -1028 10 -1868 14 -1868 3 0 5 -41 3 -91 -4 -93 -4 -91 49
-205 10 -22 19 -45 19 -51 0 -6 3 -13 8 -15 9 -4 62 -111 62 -126 0 -7 4 -12
9 -12 4 0 14 -20 21 -45 7 -25 15 -45 19 -45 3 0 19 -25 36 -55 16 -30 33 -55
37 -55 4 0 8 -5 8 -10 0 -12 47 -86 73 -114 9 -11 17 -23 17 -27 0 -7 40 -57
75 -93 11 -12 34 -39 50 -61 16 -21 36 -47 45 -56 8 -9 44 -49 80 -89 36 -40
108 -117 160 -171 291 -301 540 -555 699 -714 l179 -179 -398 -401 c-219 -220
-420 -424 -446 -453 -27 -29 -76 -82 -109 -117 -33 -35 -87 -94 -120 -131 -33
-37 -73 -81 -89 -98 -15 -17 -46 -57 -69 -88 -22 -32 -43 -58 -48 -58 -4 0
-11 -9 -14 -20 -3 -11 -12 -26 -18 -32 -7 -7 -25 -32 -41 -55 -16 -24 -32 -43
-37 -43 -4 0 -10 -14 -14 -31 -4 -17 -13 -33 -20 -36 -8 -2 -17 -18 -20 -34
-4 -16 -11 -29 -15 -29 -5 0 -15 -18 -21 -40 -7 -22 -16 -40 -21 -40 -4 0 -8
-6 -8 -13 0 -7 -11 -37 -25 -65 -14 -29 -25 -56 -25 -62 0 -5 -4 -10 -9 -10
-5 0 -12 -14 -16 -30 -4 -17 -12 -36 -19 -43 -30 -30 -47 -106 -45 -195 1 -49
-1 -93 -4 -98 -2 -5 -8 -846 -12 -1869 -4 -1023 -10 -1864 -14 -1870 -3 -5
-10 -874 -16 -1930 l-10 -1920 -22 -32 c-13 -17 -23 -36 -23 -42 0 -6 -4 -11
-10 -11 -5 0 -10 -7 -10 -15 0 -7 -6 -18 -13 -22 -6 -4 -19 -21 -27 -38 -8
-16 -17 -32 -20 -35 -3 -3 -11 -17 -19 -32 -7 -14 -26 -40 -42 -58 -16 -17
-29 -34 -29 -37 0 -8 -189 -191 -225 -218 -14 -11 -35 -28 -47 -37 -11 -10
-29 -20 -39 -23 -11 -4 -19 -10 -19 -15 0 -5 -9 -12 -20 -15 -11 -3 -26 -12
-32 -18 -7 -7 -33 -25 -58 -42 -25 -16 -48 -34 -52 -40 -5 -6 -265 -13 -720
-19 -392 -5 -715 -12 -718 -16 -3 -4 -212 -10 -465 -14 -268 -4 -464 -11 -469
-16 -6 -6 -40 -10 -77 -10 -92 0 -333 -21 -339 -29 -3 -4 -38 -13 -77 -20 -40
-7 -73 -16 -73 -21 0 -4 -16 -11 -35 -14 -19 -4 -35 -11 -35 -15 0 -5 -15 -15
-32 -22 -39 -16 -208 -184 -208 -206 0 -2 -11 -19 -25 -37 -14 -18 -25 -38
-25 -44 0 -7 -4 -12 -9 -12 -5 0 -12 -8 -16 -19 -3 -10 -14 -29 -25 -41 -11
-13 -20 -31 -20 -42 0 -10 -5 -18 -11 -18 -6 0 -9 -7 -5 -15 3 -8 1 -15 -4
-15 -5 0 -12 -21 -16 -47 -4 -27 -10 -50 -15 -53 -12 -8 -29 -170 -29 -278 0
-105 18 -282 30 -297 4 -5 11 -26 15 -45 9 -44 46 -130 56 -130 4 0 10 -11 13
-24 3 -14 12 -31 19 -38 7 -7 24 -33 39 -58 44 -77 201 -240 231 -240 4 0 6
-4 3 -8 -3 -5 11 -14 30 -21 18 -7 34 -16 34 -20 0 -5 20 -14 45 -21 25 -7 45
-16 45 -20 0 -5 18 -11 40 -15 22 -4 40 -10 40 -14 0 -4 39 -14 88 -21 48 -8
89 -17 92 -21 3 -3 77 -13 165 -20 323 -28 2392 -9 2403 22 2 5 25 9 50 9 77
0 302 22 302 30 0 4 28 11 62 14 35 4 67 11 73 15 5 5 40 14 78 22 37 7 67 16
67 19 0 4 27 13 60 20 33 7 60 16 60 21 0 4 15 11 33 14 17 4 37 11 42 15 6 4
29 14 53 21 23 6 42 15 42 19 0 4 21 13 48 21 26 7 53 19 60 26 7 7 20 13 28
13 8 0 14 4 14 8 0 5 18 15 40 22 22 7 40 16 40 21 0 4 11 10 24 13 14 3 31
12 38 19 7 7 24 18 38 25 43 22 84 47 98 60 7 6 17 12 22 12 5 0 15 6 22 13 7
6 33 26 58 42 25 17 51 35 57 40 7 6 24 19 39 30 14 11 31 25 37 30 7 6 22 18
34 26 86 60 472 442 473 468 0 3 12 17 25 30 14 13 25 29 25 37 0 8 4 14 8 14
11 0 102 125 102 139 0 6 5 11 10 11 6 0 14 8 17 18 7 17 43 72 54 82 3 3 20
32 39 65 19 33 37 62 41 65 4 3 11 18 14 33 4 15 10 27 14 27 3 0 12 15 20 32
8 18 17 35 20 38 10 8 35 64 33 73 -1 4 2 7 7 7 5 0 12 13 16 30 4 16 10 30
14 30 3 0 13 20 20 45 7 25 17 45 22 45 5 0 9 6 9 14 0 8 5 27 12 43 6 15 11
31 10 36 -1 4 2 7 7 7 5 0 12 16 15 35 4 19 11 35 15 35 5 0 12 17 16 38 4 20
13 51 21 67 13 28 33 106 38 151 1 11 5 25 9 30 3 6 9 71 13 145 4 74 11 139
15 145 13 17 29 1358 29 2522 0 582 4 1052 9 1052 4 0 10 835 13 1875 l5 1874
89 90 c49 50 215 219 369 377 154 157 362 369 463 471 100 101 182 186 182
189 0 2 36 41 81 87 45 45 95 99 113 121 17 21 48 55 69 76 20 20 37 40 37 43
0 4 17 24 38 45 20 21 51 55 67 76 17 21 35 43 40 50 31 35 115 155 115 165 0
6 5 11 10 11 6 0 15 11 20 25 5 14 14 25 19 25 5 0 12 13 16 30 4 16 10 30 15
30 5 0 14 16 21 35 7 19 16 35 21 35 4 0 10 16 14 35 3 19 10 33 14 30 5 -3
14 21 20 52 7 32 16 60 20 63 35 23 52 464 25 670 -9 74 -21 137 -26 138 -5 2
-9 10 -9 17 0 8 -5 26 -12 42 -6 15 -12 30 -13 33 -6 22 -69 146 -76 148 -5 2
-9 9 -9 15 0 7 -18 38 -40 70 -22 31 -40 61 -40 66 0 5 -7 11 -15 15 -8 3 -15
11 -15 18 0 7 -11 27 -25 43 -14 17 -40 48 -58 69 -18 21 -40 46 -49 55 -10 8
-18 19 -18 24 0 4 -15 22 -32 40 -18 18 -45 49 -60 69 -15 20 -50 59 -78 87
-27 28 -50 52 -50 55 0 4 -78 86 -331 345 -91 94 -164 173 -161 176 3 3 0 5
-5 5 -6 0 -31 21 -55 46 -23 25 -150 153 -280 284 -131 131 -238 240 -238 242
0 3 -41 46 -92 96 l-91 91 -5 1870 c-3 1040 -9 1871 -13 1871 -5 0 -9 442 -9
993 0 1122 -16 2548 -29 2557 -4 3 -11 72 -15 154 -4 82 -10 154 -13 160 -4 5
-8 19 -9 30 -5 44 -25 132 -34 151 -5 11 -14 40 -21 65 -6 25 -14 47 -18 50
-8 6 -33 71 -34 88 0 6 -4 12 -8 12 -4 0 -10 14 -14 30 -4 17 -11 30 -16 30
-5 0 -9 8 -9 17 0 21 -123 273 -161 331 -16 23 -32 54 -35 67 -3 14 -10 25
-15 25 -5 0 -15 15 -24 33 -20 44 -38 70 -52 80 -7 4 -13 12 -13 17 0 8 -38
70 -58 95 -4 6 -27 36 -51 69 -24 32 -51 66 -60 76 -9 9 -34 39 -56 65 -104
126 -249 270 -349 348 -16 12 -36 29 -45 37 -28 26 -77 64 -101 80 -13 8 -31
22 -39 30 -9 8 -37 29 -61 45 -25 17 -51 35 -58 42 -6 6 -21 15 -32 18 -11 3
-20 11 -20 16 0 5 -5 9 -12 9 -11 0 -87 47 -98 61 -3 4 -15 9 -27 13 -13 4
-29 13 -36 19 -7 7 -40 26 -72 42 -33 17 -62 33 -65 36 -3 3 -22 12 -42 20
-21 7 -38 17 -38 21 0 4 -6 8 -13 8 -7 0 -30 9 -51 19 -21 11 -51 23 -67 26
-16 4 -29 10 -29 14 0 4 -29 13 -65 20 -36 7 -65 17 -65 21 0 4 -35 13 -77 20
-43 6 -82 16 -88 20 -5 4 -43 11 -82 15 -40 4 -73 10 -73 14 0 8 -268 31 -357
31 -28 0 -53 4 -55 9 -9 25 -2097 42 -2423 19z"/>
<path d="M14250 21483 c-35 -2 -67 -7 -70 -12 -3 -4 -52 -13 -110 -20 -58 -7
-107 -16 -110 -20 -3 -5 -22 -11 -42 -15 -20 -4 -50 -13 -65 -21 -15 -8 -43
-18 -60 -21 -18 -3 -33 -10 -33 -14 0 -4 -19 -13 -42 -20 -24 -7 -45 -15 -48
-19 -3 -3 -32 -20 -65 -36 -33 -16 -66 -35 -73 -42 -6 -6 -22 -15 -34 -19 -12
-3 -26 -10 -32 -15 -6 -5 -25 -20 -42 -34 -18 -14 -35 -25 -38 -25 -3 0 -15
-8 -25 -17 -11 -10 -26 -23 -33 -28 -81 -62 -234 -208 -272 -260 -11 -14 -27
-35 -35 -46 -9 -10 -25 -31 -36 -45 -11 -14 -28 -34 -37 -46 -10 -12 -18 -24
-18 -28 0 -6 -9 -18 -49 -66 -5 -6 -12 -20 -15 -32 -4 -12 -13 -28 -19 -34 -7
-7 -25 -41 -42 -75 -16 -35 -33 -63 -36 -63 -4 0 -12 -20 -19 -45 -7 -25 -16
-45 -20 -45 -4 0 -11 -15 -14 -32 -3 -18 -13 -46 -21 -61 -8 -15 -17 -43 -21
-62 -3 -19 -10 -35 -14 -35 -5 0 -14 -33 -20 -72 -7 -40 -16 -75 -20 -78 -5
-3 -13 -52 -20 -110 -6 -58 -16 -113 -21 -122 -13 -24 -12 -498 1 -498 6 0 10
-16 10 -35 0 -48 21 -189 30 -195 3 -3 12 -38 19 -77 7 -40 16 -73 21 -73 4 0
11 -20 14 -45 4 -25 11 -45 15 -45 4 0 14 -25 21 -55 7 -30 17 -55 21 -55 5 0
14 -18 20 -40 7 -22 16 -40 21 -40 4 0 8 -6 8 -14 0 -8 6 -21 13 -28 7 -7 18
-26 25 -41 6 -15 16 -33 22 -40 5 -7 34 -48 62 -91 29 -44 65 -92 80 -107 16
-15 28 -30 28 -33 0 -3 15 -20 33 -39 17 -18 41 -44 53 -58 27 -31 175 -168
209 -193 14 -11 35 -27 45 -35 40 -34 57 -47 100 -76 25 -16 47 -33 50 -36 3
-4 15 -9 27 -13 13 -4 29 -13 36 -19 7 -7 40 -25 72 -42 33 -16 62 -33 65 -37
3 -3 19 -10 35 -13 17 -4 39 -13 50 -19 11 -7 40 -18 65 -25 25 -7 50 -17 55
-21 6 -4 28 -11 50 -15 22 -4 42 -11 45 -16 3 -5 50 -14 103 -21 53 -7 97 -16
97 -20 0 -4 124 -8 275 -8 177 0 275 4 275 10 0 6 19 10 42 10 70 0 268 22
268 30 0 4 25 11 55 15 30 3 57 10 60 15 2 4 34 13 70 20 36 7 65 16 65 20 0
4 25 13 55 20 30 7 55 17 55 22 0 4 6 8 13 8 6 0 41 16 77 35 36 19 77 40 93
46 15 6 27 15 27 19 0 5 10 12 22 16 19 6 67 39 146 99 57 44 262 239 262 250
0 3 15 20 33 38 17 18 51 57 74 87 24 30 49 62 56 70 8 8 17 23 20 33 4 9 11
17 17 17 5 0 10 5 10 11 0 6 11 25 25 43 14 18 25 38 25 44 0 7 4 12 9 12 5 0
12 13 16 29 3 16 12 35 20 41 8 6 17 25 20 41 4 16 10 29 14 29 4 0 14 25 21
55 7 30 16 55 20 55 4 0 13 35 20 78 7 42 16 82 21 87 4 6 11 51 15 100 4 50
11 93 17 97 14 8 14 808 0 817 -6 3 -13 42 -17 86 -4 44 -11 82 -15 85 -4 3
-13 31 -21 63 -7 31 -16 57 -20 57 -3 0 -12 23 -19 50 -7 28 -16 50 -20 50 -4
0 -20 28 -35 63 -16 34 -32 64 -35 67 -4 3 -20 27 -36 55 -16 27 -37 58 -47
69 -10 11 -18 26 -18 33 0 7 -4 13 -8 13 -5 0 -30 30 -58 67 -27 38 -64 81
-81 98 -18 16 -33 33 -33 38 0 10 -190 190 -237 224 -13 10 -37 28 -51 41 -32
27 -34 29 -92 67 -25 17 -51 36 -58 43 -7 6 -17 12 -22 12 -5 0 -15 6 -22 13
-8 6 -41 26 -73 42 -33 17 -62 33 -65 36 -3 4 -24 12 -47 19 -24 7 -43 16 -43
20 0 4 -27 13 -60 20 -33 7 -60 16 -60 20 0 5 -22 11 -50 15 -27 4 -50 10 -50
15 0 4 -53 13 -117 20 -65 8 -121 18 -124 23 -7 10 -512 18 -629 10z"/>
<path d="M12810 10695 l0 -1645 778 0 777 0 -3 -72 c-1 -40 -7 -82 -12 -93 -4
-11 -14 -112 -20 -224 -6 -112 -15 -211 -20 -220 -4 -9 -13 -59 -20 -111 -6
-52 -15 -97 -19 -100 -5 -3 -11 -26 -15 -52 -4 -27 -11 -48 -17 -48 -5 0 -9
-8 -9 -17 0 -21 -46 -115 -77 -160 -13 -17 -23 -34 -23 -39 0 -8 -102 -106
-142 -137 -13 -10 -33 -20 -45 -23 -13 -4 -23 -10 -23 -14 0 -4 -20 -13 -45
-20 -25 -7 -45 -16 -45 -21 0 -4 -17 -11 -37 -15 -21 -4 -40 -11 -43 -15 -3
-5 -41 -14 -83 -21 -42 -6 -77 -15 -77 -18 0 -4 -45 -13 -100 -20 -55 -7 -100
-16 -100 -20 0 -4 -29 -11 -65 -15 l-65 -7 0 -720 0 -721 38 6 c20 3 97 9 170
13 72 4 132 10 132 13 0 4 75 13 168 20 92 7 169 16 172 21 3 4 47 12 99 19
52 6 102 16 111 21 10 5 43 13 74 16 31 4 56 10 56 14 0 4 34 13 75 20 41 7
75 16 75 21 0 4 19 10 43 14 23 4 61 16 84 26 23 11 49 19 57 19 8 0 17 4 20
9 3 5 28 14 56 21 27 7 50 16 50 20 0 4 12 11 28 15 15 3 63 24 107 46 45 21
86 39 93 39 7 0 12 4 12 9 0 5 16 15 35 21 19 6 35 16 35 21 0 5 11 11 25 15
14 3 25 10 25 14 0 5 16 14 35 21 19 7 35 16 35 20 0 4 9 11 20 14 11 3 26 12
32 18 7 7 33 26 58 42 48 32 51 35 120 95 25 22 48 40 52 40 9 0 268 259 268
268 0 4 14 21 31 37 17 17 38 42 47 58 9 15 20 27 24 27 4 0 8 7 8 15 0 8 9
20 20 27 11 7 20 16 20 20 0 8 79 126 98 146 6 7 12 20 12 27 0 7 6 20 13 27
7 7 20 28 28 46 7 17 17 32 20 32 4 0 10 12 14 27 3 15 10 30 15 33 9 6 70
136 70 150 0 6 4 10 9 10 5 0 12 14 16 30 4 17 10 30 14 30 4 0 12 17 18 38 6
20 23 69 38 107 15 39 32 89 38 113 6 23 13 42 17 42 4 0 13 27 20 60 7 33 16
60 19 60 4 0 13 34 20 75 8 42 17 78 21 80 5 3 11 33 15 67 4 35 11 68 15 73
8 11 30 228 30 303 0 31 5 52 13 55 18 6 18 1138 0 1145 -8 2 -13 23 -13 55 0
86 -23 347 -31 347 -4 0 -10 37 -14 83 -4 45 -11 87 -15 92 -4 6 -14 49 -21
98 -7 48 -16 87 -20 87 -4 0 -12 36 -19 80 -7 44 -16 80 -20 80 -4 0 -11 21
-15 48 -4 26 -10 52 -15 57 -4 6 -13 37 -20 70 -7 33 -16 65 -20 70 -5 6 -14
41 -21 78 -7 37 -16 67 -20 67 -4 0 -10 19 -14 43 -4 23 -11 47 -15 52 -4 6
-13 36 -20 68 -7 31 -16 57 -20 57 -4 0 -13 28 -21 63 -7 34 -19 73 -26 87 -7
14 -13 33 -13 42 0 9 -4 19 -9 22 -5 3 -15 29 -21 57 -7 29 -19 63 -26 77 -7
14 -16 42 -19 64 -4 21 -11 38 -16 38 -5 0 -9 8 -9 18 0 9 -7 30 -15 45 -8 16
-20 47 -26 70 -6 22 -25 55 -43 73 -28 28 -43 34 -110 43 -43 6 -113 11 -156
11 -43 0 -82 5 -85 10 -4 7 -467 10 -1356 10 l-1349 0 0 -1645z"/>
</g>
</svg>
